<svg width="266" height="73" viewBox="0 0 266 73" fill="none" xmlns="http://www.w3.org/2000/svg">
<path d="M140.987 41.2567C142.718 41.6083 144.098 42.4334 145.126 43.7318C146.181 45.0032 146.708 46.5045 146.708 48.2358C146.708 50.6433 145.897 52.5504 144.274 53.957C142.678 55.3366 140.351 56.0264 137.295 56.0264H125V27.3796H137.051C139.946 27.3796 142.164 28.0153 143.706 29.2867C145.275 30.5581 146.059 32.3434 146.059 34.6427C146.059 36.4281 145.586 37.8888 144.639 39.025C143.719 40.1611 142.502 40.905 140.987 41.2567ZM130.721 39.3902H135.874C137.308 39.3902 138.39 39.0791 139.121 38.4569C139.878 37.8077 140.257 36.888 140.257 35.6977C140.257 34.5075 139.891 33.5878 139.161 32.9385C138.431 32.2893 137.308 31.9647 135.793 31.9647H130.721V39.3902ZM136.158 51.3602C137.673 51.3602 138.836 51.0356 139.648 50.3863C140.46 49.7101 140.865 48.7362 140.865 47.4648C140.865 46.1935 140.446 45.2196 139.607 44.5434C138.796 43.84 137.633 43.4884 136.118 43.4884H130.721V51.3602H136.158ZM159.522 33.2631C161.415 33.2631 163.038 33.7095 164.391 34.6022C165.744 35.4948 166.704 36.6986 167.272 38.2135V33.5472H172.953V56.0264H167.272V51.3196C166.704 52.8344 165.744 54.0517 164.391 54.9715C163.038 55.8641 161.415 56.3105 159.522 56.3105C157.628 56.3105 155.924 55.8506 154.409 54.9309C152.894 54.0112 151.704 52.6857 150.838 50.9544C150 49.1961 149.581 47.1402 149.581 44.7868C149.581 42.4334 150 40.391 150.838 38.6598C151.704 36.9015 152.894 35.5625 154.409 34.6427C155.924 33.723 157.628 33.2631 159.522 33.2631ZM161.307 38.254C159.522 38.254 158.088 38.8356 157.006 39.9988C155.924 41.162 155.383 42.758 155.383 44.7868C155.383 46.8156 155.924 48.4116 157.006 49.5748C158.088 50.7109 159.522 51.279 161.307 51.279C163.038 51.279 164.459 50.6974 165.568 49.5342C166.704 48.344 167.272 46.7615 167.272 44.7868C167.272 42.785 166.704 41.2026 165.568 40.0394C164.459 38.8491 163.038 38.254 161.307 38.254ZM191.528 33.2226C194.124 33.2226 196.194 34.0747 197.736 35.7789C199.278 37.4831 200.049 39.8771 200.049 42.9609V56.0264H194.368V43.6101C194.368 41.8247 193.908 40.4451 192.988 39.4713C192.069 38.4704 190.811 37.97 189.215 37.97C187.592 37.97 186.293 38.4975 185.319 39.5525C184.346 40.6075 183.859 42.1223 183.859 44.097V56.0264H178.137V33.5472H183.859V38.0511C184.454 36.5363 185.428 35.3596 186.78 34.521C188.16 33.6554 189.742 33.2226 191.528 33.2226ZM218.229 56.0264L210.804 46.207V56.0264H205.083V26H210.804V42.8797L218.189 33.5472H224.965L215.511 44.7462L225.208 56.0264H218.229Z" fill="#5CE1E6"/>
<path d="M36.0678 0C28.9343 -8.50666e-08 21.9609 2.11534 16.0296 6.07852C10.0983 10.0417 5.47541 15.6747 2.74552 22.2652C0.0156288 28.8558 -0.698635 36.1078 0.693047 43.1043C2.08473 50.1007 5.51986 56.5274 10.564 61.5716C15.6082 66.6157 22.0348 70.0509 29.0313 71.4426C36.0278 72.8342 43.2798 72.12 49.8703 69.3901C56.4609 66.6602 62.0939 62.0373 66.0571 56.106C70.0202 50.1747 72.1356 43.2013 72.1356 36.0678H54.1017C54.1017 39.6346 53.044 43.1212 51.0624 46.0869C49.0808 49.0526 46.2643 51.364 42.9691 52.7289C39.6738 54.0939 36.0478 54.451 32.5496 53.7552C29.0513 53.0593 25.838 51.3418 23.3159 48.8197C20.7938 46.2976 19.0763 43.0843 18.3804 39.586C17.6846 36.0878 18.0417 32.4618 19.4066 29.1665C20.7716 25.8713 23.083 23.0547 26.0487 21.0732C29.0144 19.0916 32.501 18.0339 36.0678 18.0339V0Z" fill="white"/>
<path d="M36.0678 0C31.3313 -5.64821e-08 26.6412 0.932921 22.2652 2.7455C17.8893 4.55807 13.9132 7.21481 10.564 10.564C7.21481 13.9132 4.55807 17.8893 2.7455 22.2653C0.93292 26.6412 -7.1519e-07 31.3313 0 36.0678H18.0339C18.0339 33.6996 18.5004 31.3545 19.4066 29.1665C20.3129 26.9785 21.6413 24.9905 23.3159 23.3159C24.9905 21.6413 26.9785 20.3129 29.1665 19.4066C31.3545 18.5004 33.6995 18.0339 36.0678 18.0339V0Z" fill="#5CE1E6"/>
<path d="M36.0678 47.339C42.2927 47.339 47.339 42.2927 47.339 36.0678C47.339 29.8429 42.2927 24.7966 36.0678 24.7966C29.8429 24.7966 24.7966 29.8429 24.7966 36.0678C24.7966 42.2927 29.8429 47.339 36.0678 47.339Z" fill="#5CE1E6"/>
<path d="M47.339 36.0678C47.339 34.5877 47.0475 33.122 46.481 31.7545C45.9146 30.387 45.0844 29.1445 44.0377 28.0979C42.9911 27.0513 41.7486 26.221 40.3811 25.6546C39.0136 25.0882 37.548 24.7966 36.0678 24.7966C34.5876 24.7966 33.122 25.0882 31.7545 25.6546C30.387 26.221 29.1445 27.0513 28.0979 28.0979C27.0512 29.1445 26.221 30.387 25.6546 31.7545C25.0882 33.122 24.7966 34.5877 24.7966 36.0678H36.0678H47.339Z" fill="white"/>
<path d="M97.96 51.04H87.48L85.8 56H78.64L88.8 27.92H96.72L106.88 56H99.64L97.96 51.04ZM96.2 45.76L92.72 35.48L89.28 45.76H96.2ZM114.812 31.36C113.612 31.36 112.626 31.0133 111.852 30.32C111.106 29.6 110.732 28.72 110.732 27.68C110.732 26.6133 111.106 25.7333 111.852 25.04C112.626 24.32 113.612 23.96 114.812 23.96C115.986 23.96 116.946 24.32 117.692 25.04C118.466 25.7333 118.852 26.6133 118.852 27.68C118.852 28.72 118.466 29.6 117.692 30.32C116.946 31.0133 115.986 31.36 114.812 31.36ZM118.212 33.68V56H111.372V33.68H118.212Z" fill="white"/>
</svg>
